<?xml version="1.0" encoding="utf-8"?>
<!-- Generator: Adobe Illustrator 16.0.0, SVG Export Plug-In . SVG Version: 6.00 Build 0)  -->
<!DOCTYPE svg PUBLIC "-//W3C//DTD SVG 1.1//EN" "http://www.w3.org/Graphics/SVG/1.1/DTD/svg11.dtd">
<svg version="1.1" id="Layer_1" xmlns="http://www.w3.org/2000/svg" xmlns:xlink="http://www.w3.org/1999/xlink" x="0px" y="0px"
	 width="32px" height="32px" viewBox="0 0 32 32" enable-background="new 0 0 32 32" xml:space="preserve">
<g>
	<g>
		<g>
			<path fill="#D23292" stroke="#F1F1F2" stroke-miterlimit="10" d="M6.882,1.381c-2.047,0-3.711,1.61-3.711,3.591
				c0,1.98,1.665,3.591,3.711,3.591c2.046,0,3.71-1.611,3.71-3.591C10.593,2.991,8.928,1.381,6.882,1.381z M6.882,6.768
				c-1.023,0-1.855-0.806-1.855-1.795s0.833-1.795,1.855-1.795c1.021,0,1.855,0.806,1.855,1.795S7.903,6.768,6.882,6.768z"/>
		</g>
	</g>
	<g>
		<g>
			<path fill="#D23292" stroke="#F1F1F2" stroke-miterlimit="10" d="M12.444,20.145l-0.846-8.168
				c-0.095-0.923-0.889-1.617-1.846-1.617H8.737c-0.247,0-0.483,0.095-0.657,0.262l-1.198,1.16l-1.199-1.16
				c-0.174-0.167-0.411-0.262-0.657-0.262H4.011c-0.956,0-1.75,0.694-1.845,1.615l-0.845,8.17c-0.026,0.253,0.06,0.505,0.235,0.691
				c0.175,0.188,0.426,0.296,0.687,0.296h1.015l0.761,7.359c0.096,0.924,0.891,1.618,1.849,1.618h2.03
				c0.958,0,1.752-0.694,1.846-1.615l0.762-7.362h1.015c0.261,0,0.512-0.107,0.688-0.296C12.384,20.649,12.469,20.396,12.444,20.145
				z M9.664,19.337c-0.477,0-0.875,0.349-0.923,0.808l-0.843,8.17h-2.03l-0.844-8.17c-0.049-0.459-0.447-0.808-0.924-0.808h-0.83
				l0.742-7.183h0.634l1.582,1.533c0.349,0.338,0.965,0.338,1.312,0l1.583-1.533h0.633l0.743,7.183H9.664z"/>
		</g>
	</g>
	<g>
		<g>
			<path fill="#D23292" stroke="#F1F1F2" stroke-miterlimit="10" d="M16.158,1.381c-0.353,0-0.685,0.02-1.038,0.06l-0.817,0.094
				v28.421l0.817,0.094c0.353,0.04,0.685,0.061,1.038,0.061C24.342,30.109,31,23.665,31,15.746C31,7.825,24.342,1.381,16.158,1.381z
				 M26.669,8.391c-1.356,0.522-2.74,0.955-4.158,1.268c-0.828-2.296-2.134-4.412-3.833-6.239
				C21.95,4.044,24.776,5.868,26.669,8.391z M16.158,3.507c2.027,1.809,3.557,4.026,4.489,6.479
				c-1.474,0.224-2.967,0.374-4.489,0.374V3.507z M16.158,12.154c1.71,0,3.386-0.171,5.04-0.438c0.335,1.306,0.526,2.654,0.526,4.03
				c0,1.375-0.191,2.724-0.527,4.029c-1.653-0.268-3.329-0.438-5.039-0.438V12.154z M16.158,27.983v-6.848
				c1.507,0.011,3.002,0.159,4.484,0.384C19.709,23.967,18.182,26.18,16.158,27.983z M18.678,28.071
				c1.696-1.824,2.998-3.934,3.825-6.225c1.42,0.31,2.808,0.734,4.164,1.255C24.776,25.625,21.95,27.446,18.678,28.071z
				 M23.024,20.109c0.356-1.414,0.554-2.875,0.554-4.364s-0.197-2.951-0.554-4.366c1.583-0.354,3.131-0.837,4.643-1.439
				c0.938,1.739,1.479,3.71,1.479,5.805c0,2.093-0.54,4.064-1.479,5.803C26.156,20.946,24.609,20.462,23.024,20.109z"/>
		</g>
	</g>
</g>
</svg>
