<?xml version="1.0" encoding="utf-8"?>
<!-- Generator: Adobe Illustrator 16.0.0, SVG Export Plug-In . SVG Version: 6.00 Build 0)  -->
<!DOCTYPE svg PUBLIC "-//W3C//DTD SVG 1.1//EN" "http://www.w3.org/Graphics/SVG/1.1/DTD/svg11.dtd">
<svg version="1.1" id="Layer_1" xmlns="http://www.w3.org/2000/svg" xmlns:xlink="http://www.w3.org/1999/xlink" x="0px" y="0px"
	 width="32px" height="32px" viewBox="0 0 32 32" enable-background="new 0 0 32 32" xml:space="preserve">
<g>
	<path fill="#D33393" stroke="#D33393" stroke-width="0.35" stroke-miterlimit="10" d="M29.474,21.382
		c-0.241-0.521-0.681-0.923-1.221-1.12c-0.541-0.196-1.137-0.171-1.655,0.074l-5.616,2.612c0.373-0.669,0.362-1.487-0.025-2.147
		c-0.39-0.663-1.101-1.07-1.869-1.07h-6.5c-1.172,0-2.239,0.676-2.74,1.735H8.686v-1.301c0-0.239-0.193-0.435-0.433-0.435H3.919
		c-0.239,0-0.433,0.195-0.433,0.435v8.668c0,0.239,0.194,0.433,0.433,0.433h4.334c0.24,0,0.433-0.193,0.433-0.433v-0.867h11.316
		c0.317-0.001,0.63-0.068,0.918-0.202l7.51-3.501C29.508,23.753,29.975,22.467,29.474,21.382z M7.82,28.399H4.354v-7.801H7.82
		V28.399z M28.062,23.477l-7.509,3.501c-0.172,0.08-0.359,0.121-0.551,0.121H8.686v-4.767h1.452c0.186,0,0.35-0.116,0.409-0.291
		c0.305-0.866,1.123-1.444,2.041-1.442h6.5c0.719,0,1.3,0.582,1.3,1.3c0,0.72-0.581,1.302-1.3,1.302h-3.9v0.865h4.973
		c0.316,0,0.628-0.069,0.914-0.203l5.891-2.741c0.311-0.146,0.666-0.162,0.99-0.045c0.322,0.117,0.585,0.356,0.731,0.669
		c0.079,0.174,0.122,0.361,0.122,0.553C28.809,22.802,28.518,23.26,28.062,23.477z"/>
	<g>
		<g>
			<path fill="#D33393" stroke="#D33393" stroke-width="0.35" stroke-miterlimit="10" d="M24.704,8.6l-7.869-5.761
				c-0.152-0.11-0.358-0.11-0.51,0L8.457,8.6C8.265,8.74,8.223,9.01,8.364,9.203c0.14,0.193,0.409,0.234,0.602,0.093l7.615-5.574
				l7.613,5.574c0.076,0.056,0.166,0.083,0.255,0.083c0.132,0,0.263-0.062,0.348-0.177C24.938,9.01,24.896,8.74,24.704,8.6z"/>
		</g>
	</g>
	<g>
		<g>
			<path fill="#D33393" stroke="#D33393" stroke-width="0.35" stroke-miterlimit="10" d="M14.854,17.554h7.764
				c0.239,0,0.434-0.193,0.434-0.431V9.825c-0.001-0.238-0.194-0.43-0.434-0.43c-0.237,0-0.431,0.192-0.431,0.43v6.865h-7.764"/>
			<path fill="#D33393" stroke="#D33393" stroke-width="0.35" stroke-miterlimit="10" d="M17.875,17.123"/>
			<path fill="#D33393" stroke="#D33393" stroke-width="0.35" stroke-miterlimit="10" d="M15.287,17.123"/>
			<path fill="#D33393" stroke="#D33393" stroke-width="0.35" stroke-miterlimit="10" d="M14.423,16.69h-3.45V9.825
				c0-0.238-0.193-0.43-0.432-0.43c-0.238,0-0.431,0.192-0.431,0.43v7.298c0,0.237,0.193,0.431,0.431,0.431h4.313"/>
		</g>
	</g>
	<g>
		<path fill="#D33393" stroke="#D33393" stroke-width="0.35" stroke-miterlimit="10" d="M18.949,7.924v0.684h-1.625
			c0.327,0.253,0.538,0.601,0.632,1.043h0.993v0.671h-0.963c-0.048,0.548-0.275,0.987-0.683,1.315
			c-0.407,0.328-0.95,0.49-1.625,0.49h-0.089l2.045,2.559h-1.002l-1.985-2.559v-0.67h0.982c0.95,0,1.468-0.378,1.554-1.135h-2.537
			V9.651h2.496c-0.166-0.696-0.674-1.043-1.523-1.043h-0.972V7.924H18.949z"/>
	</g>
</g>
</svg>
