<svg xmlns="http://www.w3.org/2000/svg" width="64.746" height="64.745" viewBox="0 0 64.746 64.745">
  <g id="Group_154" data-name="Group 154" transform="translate(-1093.625 -3491.904)">
    <path id="Path_60" data-name="Path 60" d="M1139.341,3509.086l-18.82,9.071a1.37,1.37,0,0,0-.641.641l-9.073,18.822a1.375,1.375,0,0,0,1.836,1.835l18.821-9.072a1.388,1.388,0,0,0,.642-.64l9.071-18.823a1.374,1.374,0,0,0-1.836-1.834Zm-17.827,12.649,7.013,7.014-13.538,6.524Zm8.956,5.071-7.013-7.013,13.538-6.525Z" fill="#c11c81"/>
    <path id="Path_59" data-name="Path 59" d="M1125.993,3491.9a32.378,32.378,0,1,0,22.886,9.479A32.366,32.366,0,0,0,1125.993,3491.9Zm20.945,53.31a29.413,29.413,0,0,1-19.572,8.643v-4.968a1.374,1.374,0,1,0-2.748,0v4.968a29.617,29.617,0,0,1-28.212-28.212h4.968a1.375,1.375,0,0,0,0-2.749h-4.968a29.617,29.617,0,0,1,28.212-28.212v4.967a1.374,1.374,0,1,0,2.748,0v-4.967a29.62,29.62,0,0,1,28.214,28.212h-4.971a1.375,1.375,0,0,0,0,2.749h4.971a29.416,29.416,0,0,1-8.642,19.569Z" fill="#c11c81"/>
  </g>
</svg>
